<?xml version="1.0" standalone="no"?>
<!DOCTYPE svg PUBLIC "-//W3C//DTD SVG 20010904//EN"
 "http://www.w3.org/TR/2001/REC-SVG-20010904/DTD/svg10.dtd">
<svg version="1.0" xmlns="http://www.w3.org/2000/svg"
 width="378.000000pt" height="370.000000pt" viewBox="0 0 378.000000 370.000000"
 preserveAspectRatio="xMidYMid meet">

<g transform="translate(0.000000,370.000000) scale(0.100000,-0.100000)"
fill="#000000" stroke="none">
<path d="M2334 3297 c-16 -18 -60 -78 -97 -133 -38 -54 -99 -144 -137 -199
-111 -162 -135 -195 -141 -195 -4 0 -5 16 -2 36 3 25 1 34 -6 30 -6 -4 -11 -3
-11 3 0 5 4 12 9 15 11 7 2 46 -11 46 -5 0 -7 4 -4 9 4 5 -8 7 -26 5 -29 -3
-30 -2 -10 6 27 11 28 16 3 30 -14 7 -22 7 -27 -2 -5 -7 -3 -8 6 -3 9 5 11 4
6 -3 -4 -7 -14 -12 -23 -12 -13 0 -13 -3 -2 -17 12 -16 11 -16 -8 0 -14 13
-29 17 -44 12 -14 -5 -19 -4 -15 4 11 17 -10 13 -24 -4 -11 -13 -10 -14 4 -9
9 3 16 3 16 0 0 -4 -10 -10 -23 -15 -12 -5 -29 -22 -36 -37 -7 -16 -20 -41
-28 -56 -10 -21 -11 -33 -3 -48 9 -16 8 -19 -6 -13 -11 4 -15 2 -11 -4 4 -6 0
-13 -8 -17 -8 -3 -15 -17 -15 -31 l0 -25 -242 0 c-134 0 -248 -4 -254 -8 -15
-10 -34 -47 -34 -67 0 -26 46 -65 78 -65 l28 0 33 -162 c95 -477 129 -628 145
-652 9 -15 28 -31 42 -36 38 -15 926 -13 958 2 14 6 33 22 41 35 9 13 60 200
114 416 l99 391 38 11 c44 12 67 46 58 85 -8 36 -19 43 -72 50 -39 4 -48 9
-50 28 -2 12 -20 40 -40 62 -21 21 -36 43 -34 49 3 9 -65 33 -85 30 -25 -4
-23 5 6 35 30 31 35 56 10 56 -5 0 -23 -20 -41 -44 -27 -40 -33 -43 -55 -35
-13 5 -39 9 -56 8 -31 -1 -31 -1 -7 -10 26 -9 58 -49 40 -49 -5 0 -10 3 -10 8
0 4 -17 8 -37 10 -20 1 -38 4 -40 6 -2 1 4 22 12 46 21 59 20 59 -20 7 -26
-34 -39 -44 -55 -40 -11 3 -23 9 -26 14 -5 8 51 94 202 313 30 43 54 87 54 98
0 27 -44 68 -74 68 -15 0 -35 -12 -52 -33z m-614 -512 c-7 -9 -15 -13 -18 -10
-3 2 1 11 8 20 7 9 15 13 18 10 3 -2 -1 -11 -8 -20z m490 6 c0 -4 -7 -16 -16
-27 -15 -19 -15 -19 -6 1 5 11 7 26 4 34 -3 8 0 11 7 7 6 -4 11 -11 11 -15z
m330 5 c0 -9 -30 -14 -35 -6 -4 6 3 10 14 10 12 0 21 -2 21 -4z m-106 -68 c25
-36 20 -48 -20 -48 -32 0 -36 3 -31 21 4 15 2 19 -9 15 -8 -3 -14 -1 -14 4 0
6 9 10 20 10 11 0 20 4 20 9 0 4 -12 7 -27 4 -24 -3 -25 -2 -8 6 18 9 18 10 2
10 -10 1 -15 5 -12 11 8 13 59 -14 79 -42z m-119 -15 l33 -33 -48 2 c-47 2
-48 3 -28 20 18 15 19 19 5 33 -19 18 -31 20 -24 2 3 -8 -3 -14 -14 -14 -10
-1 -19 4 -19 10 0 7 -7 3 -15 -7 -8 -11 -15 -15 -15 -9 0 20 25 33 40 20 10
-10 12 -9 7 6 -4 11 -3 16 3 12 6 -3 10 -1 10 6 0 13 14 3 65 -48z m20 47 c-3
-5 -10 -10 -16 -10 -5 0 -9 5 -9 10 0 6 7 10 16 10 8 0 12 -4 9 -10z m-405
-35 c-13 -16 -34 -10 -24 6 3 5 10 7 15 4 5 -4 9 2 10 12 0 11 3 13 6 5 3 -7
-1 -19 -7 -27z m214 27 c3 -5 -1 -9 -9 -9 -8 0 -12 4 -9 9 3 4 7 8 9 8 2 0 6
-4 9 -8z m34 -37 c-3 -3 -9 2 -12 12 -6 14 -5 15 5 6 7 -7 10 -15 7 -18z
m-278 -25 c0 -5 -5 -10 -11 -10 -5 0 -7 5 -4 10 3 6 8 10 11 10 2 0 4 -4 4
-10z m205 0 c3 -5 -1 -10 -10 -10 -9 0 -13 5 -10 10 3 6 8 10 10 10 2 0 7 -4
10 -10z m-465 -268 c19 -15 23 -33 31 -132 6 -63 17 -182 25 -264 13 -138 13
-151 -2 -168 -39 -42 -94 -13 -100 53 -2 24 -10 112 -19 194 -30 316 -31 309
9 325 30 12 31 12 56 -8z m661 0 l22 -19 -12 -149 c-21 -260 -37 -382 -50
-398 -21 -25 -65 -20 -81 9 -14 26 -13 33 21 400 13 140 16 150 42 163 30 15
32 14 58 -6z m-313 -4 c9 -9 12 -85 12 -279 0 -290 -2 -299 -55 -299 -51 0
-55 22 -55 302 0 220 2 259 16 272 18 19 65 21 82 4z"/>
<path d="M1832 2949 c2 -6 8 -10 13 -10 5 0 11 4 13 10 2 6 -4 11 -13 11 -9 0
-15 -5 -13 -11z"/>
<path d="M350 1367 c-32 -16 -47 -58 -33 -89 6 -13 32 -35 58 -48 52 -27 63
-43 45 -65 -20 -24 -50 -18 -81 16 l-29 31 0 -38 0 -39 56 -3 c79 -4 106 15
102 71 -3 39 -7 44 -51 68 -60 32 -69 42 -61 62 10 28 59 21 83 -10 l20 -28 1
37 c0 29 -4 37 -17 36 -10 0 -29 2 -43 6 -14 3 -36 0 -50 -7z"/>
<path d="M1920 1362 c-45 -22 -73 -74 -66 -126 9 -79 70 -120 147 -99 26 7 41
7 49 -1 7 -7 10 3 10 31 0 23 5 45 10 48 23 14 7 25 -35 25 -25 0 -45 -4 -45
-10 0 -5 5 -10 10 -10 14 0 13 -43 -2 -58 -53 -53 -111 64 -75 151 14 33 20
37 52 37 29 0 39 -5 53 -30 23 -40 32 -38 32 9 0 32 -4 40 -17 39 -10 -1 -34
2 -53 5 -24 5 -46 2 -70 -11z"/>
<path d="M2453 1373 c-84 -16 -112 -158 -42 -217 47 -40 110 -37 155 8 29 29
34 41 34 83 0 65 -27 109 -77 122 -21 6 -40 10 -43 10 -3 -1 -15 -4 -27 -6z
m75 -45 c27 -57 21 -140 -13 -168 -21 -18 -60 -5 -73 25 -15 33 -15 107 0 140
15 34 69 36 86 3z"/>
<path d="M2730 1369 c-39 -16 -59 -39 -70 -81 -23 -85 28 -158 111 -158 43 0
89 32 89 62 0 18 -3 17 -29 -11 -16 -17 -38 -31 -50 -31 -64 0 -95 126 -44
183 26 28 71 22 91 -13 23 -40 32 -38 32 9 0 32 -4 40 -17 39 -10 -1 -34 2
-53 5 -19 4 -46 2 -60 -4z"/>
<path d="M518 1358 c5 -7 12 -52 13 -100 5 -104 15 -119 88 -126 43 -4 53 -1
75 21 24 24 26 33 26 110 0 51 5 88 12 95 9 9 3 12 -27 12 -25 0 -35 -3 -27
-8 16 -11 26 -90 17 -147 -5 -38 -11 -46 -33 -52 -64 -17 -82 6 -82 108 0 64
3 80 18 88 13 8 5 10 -37 11 -42 0 -51 -3 -43 -12z"/>
<path d="M789 1356 c9 -11 12 -44 9 -121 l-3 -105 58 0 c32 0 72 6 91 14 68
28 86 140 32 195 -24 23 -36 26 -113 30 -79 3 -86 2 -74 -13z m135 -22 c53
-52 21 -184 -45 -184 -17 0 -19 9 -19 100 0 99 0 100 24 100 14 0 32 -7 40
-16z"/>
<path d="M1068 1358 c16 -16 16 -200 0 -216 -9 -9 8 -12 79 -12 86 0 91 1 97
23 12 44 6 49 -25 22 -21 -17 -41 -25 -58 -23 -23 3 -26 8 -29 46 -3 34 0 42
14 42 10 0 26 -7 36 -17 17 -15 18 -14 18 26 l0 41 -25 -16 c-32 -21 -45 -11
-45 37 0 38 1 39 34 39 26 0 39 -7 55 -27 l20 -28 1 38 0 37 -92 0 c-72 0 -89
-3 -80 -12z"/>
<path d="M1305 1354 c13 -14 16 -33 13 -103 -2 -47 -7 -94 -12 -104 -8 -17 -2
-18 79 -15 87 3 89 3 98 31 13 39 4 43 -26 13 -17 -17 -37 -26 -57 -26 -29 0
-30 2 -30 45 0 38 3 45 19 45 11 0 23 -4 26 -10 12 -19 25 -10 25 18 0 37 -9
45 -27 27 -28 -29 -43 -18 -43 30 0 43 1 45 30 45 17 0 38 -9 50 -22 l20 -22
0 32 0 32 -91 0 c-84 0 -89 -1 -74 -16z"/>
<path d="M1538 1358 c8 -8 12 -47 12 -108 0 -61 -4 -100 -12 -108 -9 -9 -1
-12 37 -12 38 0 46 3 37 12 -7 7 -12 29 -12 50 0 37 1 38 34 38 40 0 73 25 82
62 4 21 0 33 -20 52 -22 23 -33 26 -98 26 -56 0 -69 -3 -60 -12z m110 -20 c7
-7 12 -24 12 -38 0 -30 -17 -50 -42 -50 -15 0 -18 9 -18 50 0 41 3 50 18 50
10 0 23 -5 30 -12z"/>
<path d="M2128 1358 c8 -8 12 -47 12 -108 0 -61 -4 -100 -12 -108 -9 -9 -1
-12 36 -12 42 0 47 2 41 18 -5 9 -10 32 -13 50 -7 50 22 41 54 -18 24 -44 31
-50 60 -50 l33 0 -38 57 -38 57 23 19 c29 23 31 60 4 87 -17 17 -33 20 -97 20
-60 0 -74 -3 -65 -12z m117 -53 c0 -36 -2 -40 -25 -40 -22 0 -25 5 -28 43 -3
42 -2 43 25 40 25 -3 28 -7 28 -43z"/>
<path d="M2940 1351 c13 -25 13 -188 0 -196 -27 -17 -2 -25 79 -25 l89 0 6 32
c8 40 1 46 -21 19 -12 -15 -31 -23 -53 -24 -34 -2 -35 -1 -38 41 -3 36 0 42
17 42 11 0 23 -4 26 -10 13 -21 25 -9 25 25 0 39 -4 42 -26 20 -29 -29 -44
-18 -44 30 0 44 0 45 34 45 25 0 38 -6 51 -26 21 -32 27 -27 19 14 l-6 32 -85
0 c-80 0 -83 -1 -73 -19z"/>
<path d="M3180 1351 c13 -25 13 -188 0 -196 -23 -14 -7 -25 37 -25 37 0 44 3
35 12 -16 16 -16 91 0 86 7 -3 24 -24 38 -49 21 -36 32 -45 58 -47 l33 -3 -37
56 c-36 57 -36 57 -15 71 14 10 21 26 21 49 0 49 -28 65 -113 65 -64 0 -67 -1
-57 -19z m108 -13 c27 -27 12 -66 -30 -81 -16 -6 -18 0 -18 43 0 41 3 50 18
50 10 0 23 -5 30 -12z"/>
<path d="M3401 1357 c9 -7 30 -40 48 -74 31 -62 40 -116 21 -128 -23 -14 -7
-25 37 -25 37 0 44 3 35 12 -29 29 -6 120 50 201 l19 27 -30 0 c-22 0 -29 -4
-25 -14 3 -8 -4 -33 -17 -57 l-21 -43 -20 38 c-11 21 -17 47 -15 57 5 17 -1
19 -46 19 -43 -1 -49 -3 -36 -13z"/>
<path d="M785 966 c-14 -14 -25 -30 -25 -35 0 -33 24 -63 70 -86 41 -21 51
-30 48 -48 -5 -34 -60 -36 -86 -3 -27 34 -32 33 -32 -10 0 -24 4 -34 13 -31 6
2 26 0 44 -5 44 -12 100 12 109 46 10 41 -5 65 -57 92 -55 27 -68 46 -49 69
18 22 38 18 66 -12 28 -31 33 -29 27 12 -4 28 -8 30 -54 33 -41 3 -53 -1 -74
-22z"/>
<path d="M1284 956 c-29 -29 -34 -41 -34 -82 0 -93 62 -146 143 -123 50 14 79
50 84 106 7 83 -40 133 -124 133 -27 0 -43 -8 -69 -34z m111 0 c27 -19 34
-126 11 -161 -17 -26 -49 -32 -75 -16 -10 6 -16 33 -19 75 -6 97 30 141 83
102z"/>
<path d="M1560 981 c-23 -4 -31 -9 -22 -14 16 -11 17 -188 0 -205 -9 -9 -1
-12 37 -12 38 0 46 3 37 12 -7 7 -12 26 -12 43 0 28 4 32 42 41 52 11 82 48
72 87 -3 15 -14 31 -23 36 -23 13 -91 19 -131 12z m81 -21 c24 -13 25 -57 2
-82 -29 -32 -43 -22 -43 30 0 62 6 70 41 52z"/>
<path d="M1884 956 c-29 -29 -34 -41 -34 -80 0 -84 43 -131 117 -129 74 2 113
46 113 129 0 39 -5 51 -34 80 -29 29 -41 34 -81 34 -40 0 -52 -5 -81 -34z
m120 -8 c20 -27 22 -137 4 -160 -23 -28 -48 -29 -74 -3 -20 20 -24 34 -24 82
0 67 19 103 55 103 13 0 31 -10 39 -22z"/>
<path d="M3085 980 c-46 -3 -75 -8 -67 -13 16 -11 17 -188 0 -205 -9 -9 8 -12
79 -12 94 0 103 4 103 47 0 11 -6 10 -26 -6 -15 -12 -41 -21 -60 -21 -34 0
-34 1 -34 45 0 50 17 59 52 28 17 -15 18 -14 18 27 0 41 -1 42 -18 27 -10 -10
-26 -17 -36 -17 -14 0 -17 8 -14 43 4 53 30 60 77 22 l31 -27 0 25 c0 37 -17
43 -105 37z"/>
<path d="M978 973 c8 -3 12 -35 12 -108 0 -73 -4 -105 -12 -108 -7 -3 9 -6 35
-6 44 -1 47 0 37 18 -5 11 -10 36 -10 55 0 36 0 36 45 36 l45 0 0 -43 c0 -24
-5 -48 -12 -55 -9 -9 -1 -12 37 -12 38 0 46 3 37 12 -16 16 -16 190 0 206 9 9
1 12 -37 12 -38 0 -46 -3 -37 -12 7 -7 12 -29 12 -50 l0 -38 -45 0 -45 0 0 38
c0 21 5 43 12 50 9 9 1 12 -37 11 -28 0 -44 -3 -37 -6z"/>
<path d="M2140 961 c17 -32 13 -177 -6 -195 -14 -15 -12 -16 22 -16 30 0 34 2
25 14 -7 9 -11 41 -9 83 l3 68 58 -82 c32 -46 65 -83 73 -83 11 0 14 21 14
103 0 67 4 107 12 115 9 9 5 12 -21 12 -28 0 -31 -2 -22 -14 7 -9 11 -38 9
-73 l-3 -58 -49 73 c-45 66 -52 72 -83 72 -30 0 -33 -2 -23 -19z"/>
<path d="M2398 968 c8 -8 12 -46 12 -103 0 -57 -4 -95 -12 -103 -9 -9 7 -12
74 -12 91 0 98 4 98 53 0 20 -1 19 -28 -6 -16 -16 -39 -27 -55 -27 l-27 0 0
93 c0 59 4 97 12 105 9 9 1 12 -37 12 -38 0 -46 -3 -37 -12z"/>
<path d="M2618 968 c16 -16 16 -190 0 -206 -9 -9 -1 -12 37 -12 38 0 46 3 37
12 -8 8 -12 46 -12 103 0 57 4 95 12 103 9 9 1 12 -37 12 -38 0 -46 -3 -37
-12z"/>
<path d="M2758 968 c16 -16 16 -190 0 -206 -9 -9 -5 -12 20 -12 29 0 32 2 22
19 -11 22 -14 141 -2 141 4 0 32 -36 62 -80 30 -44 61 -80 68 -80 9 0 12 27
12 103 0 67 4 107 12 115 9 9 5 12 -21 12 -28 0 -31 -2 -22 -14 7 -8 11 -38 9
-70 l-3 -56 -48 70 c-45 65 -51 70 -85 70 -28 0 -33 -3 -24 -12z"/>
<path d="M1210 508 l0 -58 38 0 c31 0 41 5 49 23 21 47 0 83 -52 89 l-35 4 0
-58z m68 30 c29 -29 7 -78 -35 -78 -21 0 -23 5 -23 45 0 40 2 45 23 45 13 0
28 -5 35 -12z"/>
<path d="M1963 563 c-8 -3 -13 -25 -13 -59 0 -50 2 -54 23 -53 12 0 16 3 10 6
-22 8 -15 41 10 46 l22 4 -22 2 c-18 1 -23 7 -23 27 0 16 4 23 12 18 7 -4 8
-3 4 4 -4 7 -8 12 -9 11 -1 0 -8 -3 -14 -6z"/>
<path d="M2130 561 c0 -5 5 -13 10 -16 6 -3 10 -2 10 4 0 5 -4 13 -10 16 -5 3
-10 2 -10 -4z"/>
<path d="M2240 562 c-38 -13 -32 -46 11 -61 40 -14 40 -45 -1 -39 -16 3 -30 1
-30 -4 0 -5 17 -8 37 -6 52 4 56 31 9 59 -39 23 -38 44 1 36 14 -2 22 0 20 6
-4 12 -26 16 -47 9z"/>
<path d="M3183 561 c-5 -3 -12 -14 -16 -24 -5 -14 1 -21 28 -33 49 -20 48 -49
-2 -41 -24 4 -33 3 -26 -4 29 -29 95 -8 76 25 -5 10 -20 23 -33 29 -38 19 -38
41 -1 35 17 -2 31 -1 31 4 0 4 -3 8 -7 9 -5 0 -15 2 -24 4 -9 1 -21 0 -26 -4z"/>
<path d="M529 531 c12 -16 21 -41 21 -55 0 -14 4 -26 9 -26 5 0 8 8 6 18 -1 9
6 32 17 50 11 18 18 35 15 38 -3 3 -12 -7 -20 -22 l-14 -27 -18 26 c-9 15 -22
27 -27 27 -5 0 0 -13 11 -29z"/>
<path d="M670 545 c-9 -10 -9 -15 -1 -15 6 0 11 5 11 10 0 6 11 10 25 10 18 0
29 -8 37 -26 15 -33 1 -58 -35 -62 -22 -3 -28 2 -36 30 l-9 33 -1 -33 c-1 -26
4 -34 25 -42 61 -24 105 50 58 98 -17 17 -59 15 -74 -3z"/>
<path d="M820 516 c0 -52 19 -77 52 -68 32 7 38 20 36 72 -1 31 -2 36 -5 15
-8 -66 -13 -75 -38 -75 -23 0 -25 3 -25 50 0 28 -4 50 -10 50 -5 0 -10 -20
-10 -44z"/>
<path d="M981 503 c0 -42 3 -52 9 -38 5 11 6 35 3 53 -5 29 -3 32 21 32 28 0
36 -26 15 -47 -9 -9 -6 -19 10 -39 22 -28 28 -25 11 6 -7 14 -7 25 1 38 19 31
4 52 -36 52 l-35 0 1 -57z"/>
<path d="M1382 525 c-7 -19 -15 -44 -17 -57 -4 -21 -3 -21 9 -5 19 24 55 22
66 -5 8 -21 9 -21 9 -3 0 11 -6 34 -15 50 -11 22 -13 24 -10 8 3 -19 0 -23
-20 -23 -28 0 -28 1 -13 34 7 14 16 23 20 20 5 -3 9 0 9 5 0 25 -27 8 -38 -24z"/>
<path d="M1523 505 c0 -33 2 -45 4 -27 2 18 2 45 0 60 -2 15 -4 0 -4 -33z"/>
<path d="M1600 506 c0 -30 3 -57 8 -59 4 -2 21 0 37 4 l30 7 -27 1 c-24 1 -28
5 -29 34 -1 17 -1 40 0 50 1 9 -3 17 -8 17 -7 0 -11 -23 -11 -54z"/>
<path d="M1720 548 c0 -7 7 -22 15 -32 8 -11 15 -31 16 -45 1 -23 2 -22 11 8
5 18 16 44 25 57 8 13 11 24 6 24 -5 0 -15 -12 -21 -26 -12 -25 -32 -25 -32 1
0 8 -4 17 -10 20 -5 3 -10 0 -10 -7z"/>
<path d="M2083 544 c-6 -17 4 -31 38 -48 28 -14 21 -31 -13 -31 -16 0 -28 -3
-28 -8 0 -5 17 -7 38 -5 28 2 38 8 40 23 2 16 -7 26 -35 39 -36 17 -37 19 -18
32 17 12 17 14 2 14 -10 0 -20 -7 -24 -16z"/>
<path d="M2360 505 l0 -55 38 2 37 1 -33 4 c-40 5 -41 33 -2 44 25 7 25 7 -4
8 -25 1 -28 4 -24 26 3 14 1 25 -3 25 -5 0 -9 -25 -9 -55z"/>
<path d="M2398 553 c7 -3 16 -2 19 1 4 3 -2 6 -13 5 -11 0 -14 -3 -6 -6z"/>
<path d="M2499 518 c4 -39 5 -40 10 -14 l6 28 33 -46 c18 -25 35 -46 38 -46 2
0 3 28 2 63 -1 49 -2 53 -5 20 -2 -24 -7 -43 -11 -43 -4 0 -18 18 -32 40 -32
52 -47 51 -41 -2z"/>
<path d="M2667 553 c19 -4 22 -12 25 -56 l3 -52 5 58 5 57 -30 -1 c-23 -1 -25
-3 -8 -6z"/>
<path d="M2728 553 c7 -3 16 -2 19 1 4 3 -2 6 -13 5 -11 0 -14 -3 -6 -6z"/>
<path d="M2800 499 c0 -37 4 -58 10 -54 6 3 10 31 10 61 0 30 -4 54 -10 54 -6
0 -10 -27 -10 -61z"/>
<path d="M2909 533 c-5 -16 -15 -41 -21 -56 -6 -15 -8 -30 -5 -33 3 -3 8 4 12
15 8 26 65 31 65 6 0 -8 4 -15 9 -15 8 0 -11 78 -24 100 -11 18 -25 10 -36
-17z m35 -15 c5 -24 3 -28 -14 -28 -23 0 -23 0 -10 36 12 31 15 30 24 -8z"/>
<path d="M3040 501 l0 -59 33 5 c17 3 34 7 37 10 3 3 -7 3 -22 1 -26 -5 -28
-3 -29 31 -1 20 -1 44 0 54 1 9 -3 17 -8 17 -7 0 -11 -24 -11 -59z"/>
<path d="M860 285 c0 -31 -5 -47 -17 -54 -10 -5 -14 -13 -10 -18 16 -15 47 38
47 78 0 21 -4 39 -10 39 -5 0 -10 -20 -10 -45z"/>
<path d="M942 283 c-2 -43 2 -54 18 -63 40 -21 73 15 66 73 -6 49 -16 42 -16
-12 0 -51 -1 -52 -27 -49 -25 3 -29 8 -34 53 l-6 50 -1 -52z"/>
<path d="M1097 323 c-17 -16 -5 -42 23 -52 30 -10 40 -36 18 -44 -7 -2 -21 0
-31 5 -10 5 -21 7 -24 4 -12 -12 48 -26 68 -16 34 18 19 53 -26 62 -28 5 -25
31 5 39 l25 7 -26 1 c-14 1 -29 -2 -32 -6z"/>
<path d="M1237 323 c19 -4 23 -12 26 -56 l3 -52 2 52 c2 45 5 52 25 56 12 2 0
4 -28 4 -27 0 -40 -2 -28 -4z"/>
<path d="M1474 313 c-3 -10 -12 -33 -20 -52 -8 -18 -12 -36 -10 -39 6 -5 36
60 36 78 0 5 5 10 10 10 6 0 10 -4 10 -9 0 -5 3 -16 6 -25 4 -11 0 -16 -12
-17 -16 0 -15 -2 4 -9 12 -5 22 -14 22 -20 0 -5 4 -10 9 -10 5 0 0 25 -12 55
-20 57 -34 68 -43 38z"/>
<path d="M1692 318 c-18 -18 -14 -73 7 -92 14 -13 24 -14 45 -7 36 14 33 21
-9 14 -30 -5 -35 -3 -41 21 -12 48 20 81 57 58 15 -10 17 -9 13 3 -7 18 -55
20 -72 3z"/>
<path d="M1832 278 l-2 -58 38 2 c36 1 36 1 5 5 -31 4 -32 6 -36 56 l-3 52 -2
-57z"/>
<path d="M1960 277 c0 -32 4 -57 10 -57 12 0 9 94 -3 106 -4 4 -7 -18 -7 -49z"/>
<path d="M2050 314 c-20 -23 -16 -75 5 -90 24 -18 36 -18 60 0 17 12 15 14
-21 12 -36 -1 -39 1 -42 27 -4 36 15 60 45 54 12 -2 20 0 17 4 -9 15 -51 10
-64 -7z"/>
<path d="M2193 275 c-1 -33 1 -51 4 -40 8 35 20 37 42 9 12 -15 24 -25 26 -22
3 3 -4 17 -16 32 -20 26 -20 28 -4 54 l18 27 -31 -29 -30 -28 -5 28 c-2 16 -4
2 -4 -31z"/>
<path d="M2447 303 c-8 -15 -17 -41 -21 -58 -6 -27 -5 -28 7 -12 8 9 24 17 35
17 12 0 26 -8 32 -17 9 -15 10 -14 4 7 -3 14 -10 32 -15 40 -7 13 -8 12 -9 -2
0 -11 -8 -18 -20 -18 -23 0 -24 1 -8 35 8 18 14 22 20 13 5 -9 8 -10 8 -1 0
25 -20 22 -33 -4z"/>
<path d="M2561 322 c-2 -32 22 -102 35 -102 8 0 14 8 14 18 0 9 3 28 5 42 3
15 0 11 -9 -10 l-14 -35 -7 30 c-9 39 -23 74 -24 57z"/>
<path d="M2627 324 c-4 -4 -3 -12 1 -18 4 -6 12 -26 17 -45 11 -38 35 -54 35
-24 1 10 7 35 14 56 8 20 10 37 6 37 -4 0 -12 -16 -17 -36 -10 -43 -26 -45
-34 -4 -7 35 -13 43 -22 34z"/>
<path d="M2784 313 c-3 -10 -12 -33 -20 -52 -8 -18 -13 -36 -10 -39 3 -3 8 3
12 12 8 21 50 21 63 -1 18 -34 18 -8 0 32 -11 22 -16 30 -13 18 4 -19 1 -23
-16 -23 -16 0 -20 4 -16 16 3 9 6 20 6 25 0 5 7 9 16 9 8 0 12 5 9 10 -10 16
-25 12 -31 -7z"/>
<path d="M2909 294 c12 -19 22 -45 22 -57 1 -20 2 -20 8 3 3 14 14 40 24 58
10 17 14 32 9 32 -5 0 -14 -12 -21 -27 l-13 -28 -14 28 c-8 15 -19 27 -25 27
-6 0 -2 -16 10 -36z"/>
</g>
</svg>
